{"title":"How the West Was Won [1962] BRRip XviD - CODY","uid":8237256,"size":1185895062,"categoryP":"video","categoryS":"movies","magnet":"?xt=urn:btih:b190e36c8e5c8ad0331e9e9c05d1332af88d6aaf&amp;dn=How+the+West+Was+Won+%5B1962%5D+BRRip+XviD+-+CODY&amp;tr=udp%3A%2F%2Ftracker.openbittorrent.com%3A80&amp;tr=udp%3A%2F%2Fopen.demonii.com%3A1337&amp;tr=udp%3A%2F%2Ftracker.coppersurfer.tk%3A6969&amp;tr=udp%3A%2F%2Fexodus.desync.com%3A6969","seeders":1,"leechers":2,"uploader":"CODYBOSS1969","files":19,"time":1362866851,"description":"General\nComplete name                            : How the West Was Won [1962] BRRip XviD - CODY.avi\nFormat                                   : AVI\nFormat/Info                              : Audio Video Interleave\nFile size                                : 1.10 GiB\nDuration                                 : 2h 44mn\nOverall bit rate                         : 958 Kbps\nWriting application                      : VirtualDubMod 1.5.10.3 | www.virtualdub-fr.org || (build 2550/release)\nWriting library                          : VirtualDubMod build 2550/release\n\nVideo\nID                                       : 0\nFormat                                   : MPEG-4 Visual\nFormat profile                           : Advanced Simple@L5\nFormat settings, BVOP                    : 4\nFormat settings, QPel                    : No\nFormat settings, GMC                     : No warppoints\nFormat settings, Matrix                  : Default (H.263)\nMuxing mode                              : Packed bitstream\nCodec ID                                 : XVID\nCodec ID/Hint                            : XviD\nDuration                                 : 2h 44mn\nBit rate                                 : 821 Kbps\nWidth                                    : 720 pixels\nHeight                                   : 248 pixels\nDisplay aspect ratio                     : 2.903\nFrame rate                               : 24.000 fps\nColor space                              : YUV\nChroma subsampling                       : 4:2:0\nBit depth                                : 8 bits\nScan type                                : Progressive\nCompression mode                         : Lossy\nBits/(Pixel*Frame)                       : 0.192\nStream size                              : 967 MiB (86%)\nWriting library                          : XviD 65\n\nAudio\nID                                       : 1\nFormat                                   : MPEG Audio\nFormat version                           : Version 1\nFormat profile                           : Layer 3\nCodec ID                                 : 55\nCodec ID/Hint                            : MP3\nDuration                                 : 2h 44mn\nBit rate mode                            : Constant\nBit rate                                 : 128 Kbps\nChannel(s)                               : 2 channels\nSampling rate                            : 48.0 KHz\nCompression mode                         : Lossy\nStream size                              : 151 MiB (13%)\nAlignment                                : Aligned on interleaves\nInterleave, duration                     : 42 ms (1.00 video frame)\nInterleave, preload duration             : 504 ms\nWriting library                          : LAME3.99r\nEncoding settings                        : -m s -V 4 -q 2 -lowpass 17 -b 128\n\nAudio language                           : English\n\nIMDB link:                                &lt;a href=&quot; http://www.imdb.com/title/tt0056085/&quot; rel=&quot;nofollow&quot; target=&quot;_NEW&quot;&gt; http://www.imdb.com/title/tt0056085/&lt;/a&gt;\n\nSubtitles included                       : Danish, Dutch, English, Finnish, \n                                           French, German, Italian, Norwegian, \n                                           Portuguese, Romanian, Spanish, Swedish\n\nPlease seed at least 1,5:1. This way this torrent has a chance to survive !\n\nThanks . Enjoy !!!\t\t","torrent":{"xt":"urn:btih:b190e36c8e5c8ad0331e9e9c05d1332af88d6aaf","amp;dn":"How+the+West+Was+Won+%5B1962%5D+BRRip+XviD+-+CODY","amp;tr":["udp%3A%2F%2Ftracker.openbittorrent.com%3A80","udp%3A%2F%2Fopen.demonii.com%3A1337","udp%3A%2F%2Ftracker.coppersurfer.tk%3A6969","udp%3A%2F%2Fexodus.desync.com%3A6969"],"infoHash":"b190e36c8e5c8ad0331e9e9c05d1332af88d6aaf","infoHashBuffer":{"type":"Buffer","data":[177,144,227,108,142,92,138,208,51,30,158,156,5,209,51,42,248,141,106,175]},"announce":[],"urlList":[]}}